<?xml version="1.0" encoding="UTF-8" standalone="no"?>
<!-- Created with Inkscape (http://www.inkscape.org/) -->

<svg
   xmlns:dc="http://purl.org/dc/elements/1.1/"
   xmlns:cc="http://creativecommons.org/ns#"
   xmlns:rdf="http://www.w3.org/1999/02/22-rdf-syntax-ns#"
   xmlns:svg="http://www.w3.org/2000/svg"
   xmlns="http://www.w3.org/2000/svg"
   xmlns:sodipodi="http://sodipodi.sourceforge.net/DTD/sodipodi-0.dtd"
   xmlns:inkscape="http://www.inkscape.org/namespaces/inkscape"
   width="220"
   height="140"
   viewBox="0 0 58.208332 37.041668"
   version="1.1"
   id="svg836"
   inkscape:version="0.92.2 2405546, 2018-03-11"
   sodipodi:docname="banner.svg"
   inkscape:export-filename="/home/kirpal/projects/college-scorecard/assets/banner.png"
   inkscape:export-xdpi="96"
   inkscape:export-ydpi="96">
  <defs
     id="defs830">
    <filter
       inkscape:collect="always"
       style="color-interpolation-filters:sRGB"
       id="filter936"
       x="-0.035037499"
       width="1.070075"
       y="-0.076185733"
       height="1.1523715">
      <feGaussianBlur
         inkscape:collect="always"
         stdDeviation="0.70075"
         id="feGaussianBlur938" />
    </filter>
  </defs>
  <sodipodi:namedview
     id="base"
     pagecolor="#ffffff"
     bordercolor="#666666"
     borderopacity="1.0"
     inkscape:pageopacity="0.0"
     inkscape:pageshadow="2"
     inkscape:zoom="3.959798"
     inkscape:cx="76.903874"
     inkscape:cy="76.929712"
     inkscape:document-units="px"
     inkscape:current-layer="layer1"
     showgrid="false"
     units="px"
     inkscape:window-width="1920"
     inkscape:window-height="1024"
     inkscape:window-x="0"
     inkscape:window-y="28"
     inkscape:window-maximized="1" />
  <metadata
     id="metadata833">
    <rdf:RDF>
      <cc:Work
         rdf:about="">
        <dc:format>image/svg+xml</dc:format>
        <dc:type
           rdf:resource="http://purl.org/dc/dcmitype/StillImage" />
        <dc:title></dc:title>
      </cc:Work>
    </rdf:RDF>
  </metadata>
  <g
     inkscape:label="Layer 1"
     inkscape:groupmode="layer"
     id="layer1"
     transform="translate(0,-259.95832)">
    <rect
       style="opacity:1;fill:#ffffff;fill-opacity:1;stroke-width:0.303004"
       id="rect1426"
       width="58.208332"
       height="37.041668"
       x="8.2625905e-07"
       y="259.95831" />
    <g
       id="g1447"
       transform="translate(-3.5027158,0.7912902)">
      <g
         style="fill:#125998;fill-opacity:1"
         id="g890"
         transform="matrix(0.26458334,0,0,0.26458334,26.256882,260.14784)">
        <rect
           style="fill:#125998;fill-opacity:1"
           id="rect886"
           height="13"
           width="30"
           y="20"
           x="9" />
        <ellipse
           style="fill:#125998;fill-opacity:1"
           id="ellipse888"
           ry="6"
           rx="15"
           cy="33"
           cx="24" />
      </g>
      <path
         transform="matrix(0.26458334,0,0,0.26458334,25.811906,261.81292)"
         d="M 24.7818,1.9068001 2.2817999,11.8068 c -0.8,0.4 -0.8,1.5 0,1.9 l 22.5000001,9.9 c 0.6,0.2 1.2,0.2 1.8,0 l 22.5,-9.9 c 0.8,-0.4 0.8,-1.5 0,-1.9 l -22.5,-9.8999999 c -0.6,-0.3 -1.2,-0.3 -1.8,0 z"
         id="path910"
         style="opacity:0.07999998;fill:#07243d;fill-opacity:1;filter:url(#filter936)"
         inkscape:connector-curvature="0" />
      <path
         style="fill:#1e88e5;fill-opacity:1;stroke-width:0.26458335"
         id="path892"
         d="m 32.368757,262.31743 -5.953125,2.61937 c -0.211666,0.10584 -0.211666,0.39688 0,0.50271 l 5.953125,2.61938 c 0.15875,0.0529 0.3175,0.0529 0.47625,0 l 5.953125,-2.61938 c 0.211667,-0.10583 0.211667,-0.39687 0,-0.50271 l -5.953125,-2.61937 c -0.15875,-0.0794 -0.3175,-0.0794 -0.47625,0 z"
         inkscape:connector-curvature="0" />
      <g
         style="fill:#ffd000;fill-opacity:1"
         id="g900"
         transform="matrix(0.26458334,0,0,0.26458334,26.256882,260.14784)">
        <path
           style="fill:#ffd000;fill-opacity:1"
           id="path894"
           d="M 43.2,20.4 23.2,17 c -0.5,-0.1 -1.1,0.3 -1.2,0.8 -0.1,0.5 0.3,1.1 0.8,1.2 L 42,22.2 V 37 c 0,0.6 0.4,1 1,1 0.6,0 1,-0.4 1,-1 V 21.4 c 0,-0.5 -0.4,-0.9 -0.8,-1 z"
           inkscape:connector-curvature="0" />
        <circle
           style="fill:#ffd000;fill-opacity:1"
           id="circle896"
           r="2"
           cy="37"
           cx="43" />
        <path
           style="fill:#ffd000;fill-opacity:1"
           id="path898"
           d="m 46,40 c 0,1.7 -3,6 -3,6 0,0 -3,-4.3 -3,-6 0,-1.7 1.3,-3 3,-3 1.7,0 3,1.3 3,3 z"
           inkscape:connector-curvature="0" />
      </g>
    </g>
    <flowRoot
       xml:space="preserve"
       id="flowRoot1428"
       style="font-style:normal;font-weight:normal;font-size:40px;line-height:0.89999998;font-family:sans-serif;letter-spacing:0px;word-spacing:0px;fill:#1e88e5;fill-opacity:1;stroke:none"
       transform="matrix(0.26458334,0,0,0.26458334,-4.4054765,262.54481)"><flowRegion
         id="flowRegion1430"
         style="line-height:0.89999998;fill:#1e88e5;fill-opacity:1"><rect
           id="rect1432"
           width="184.85791"
           height="130.81474"
           x="34.597725"
           y="55.9048"
           style="line-height:0.89999998;fill:#1e88e5;fill-opacity:1" /></flowRegion><flowPara
         id="flowPara1434"
         style="font-style:normal;font-variant:normal;font-weight:bold;font-stretch:normal;font-size:32px;line-height:0.89999998;font-family:'Noto Sans Display';-inkscape-font-specification:'Noto Sans Display Bold';text-align:center;text-anchor:middle;fill:#1e88e5;fill-opacity:1">College</flowPara><flowPara
         id="flowPara1436"
         style="font-style:normal;font-variant:normal;font-weight:bold;font-stretch:normal;font-size:32px;line-height:0.89999998;font-family:'Noto Sans Display';-inkscape-font-specification:'Noto Sans Display Bold';text-align:center;text-anchor:middle;fill:#1e88e5;fill-opacity:1">Scorecard</flowPara></flowRoot>  </g>
</svg>
