<?xml version="1.0" encoding="UTF-8" standalone="no"?>
<svg
   xmlns:dc="http://purl.org/dc/elements/1.1/"
   xmlns:cc="http://creativecommons.org/ns#"
   xmlns:rdf="http://www.w3.org/1999/02/22-rdf-syntax-ns#"
   xmlns:svg="http://www.w3.org/2000/svg"
   xmlns="http://www.w3.org/2000/svg"
   xmlns:sodipodi="http://sodipodi.sourceforge.net/DTD/sodipodi-0.dtd"
   xmlns:inkscape="http://www.inkscape.org/namespaces/inkscape"
   version="1"
   viewBox="0 0 48 48"
   enable-background="new 0 0 48 48"
   id="svg902"
   sodipodi:docname="icon.svg"
   inkscape:version="0.92.2 2405546, 2018-03-11"
   inkscape:export-filename="/home/kirpal/projects/college-scorecard/assets/icon.png"
   inkscape:export-xdpi="96"
   inkscape:export-ydpi="96">
  <metadata
     id="metadata908">
    <rdf:RDF>
      <cc:Work
         rdf:about="">
        <dc:format>image/svg+xml</dc:format>
        <dc:type
           rdf:resource="http://purl.org/dc/dcmitype/StillImage" />
      </cc:Work>
    </rdf:RDF>
  </metadata>
  <defs
     id="defs906">
    <filter
       inkscape:collect="always"
       style="color-interpolation-filters:sRGB"
       id="filter936"
       x="-0.0350375"
       width="1.070075"
       y="-0.07618573"
       height="1.1523715">
      <feGaussianBlur
         inkscape:collect="always"
         stdDeviation="0.70075"
         id="feGaussianBlur938" />
    </filter>
  </defs>
  <sodipodi:namedview
     pagecolor="#ffffff"
     bordercolor="#666666"
     borderopacity="1"
     objecttolerance="10"
     gridtolerance="10"
     guidetolerance="10"
     inkscape:pageopacity="0"
     inkscape:pageshadow="2"
     inkscape:window-width="1920"
     inkscape:window-height="1024"
     id="namedview904"
     showgrid="false"
     inkscape:zoom="12.639534"
     inkscape:cx="12.75496"
     inkscape:cy="22.031125"
     inkscape:window-x="0"
     inkscape:window-y="28"
     inkscape:window-maximized="1"
     inkscape:current-layer="svg902" />
  <g
     id="g890"
     style="fill:#125998;fill-opacity:1"
     fill="#37474F">
    <rect
       x="9"
       y="20"
       width="30"
       height="13"
       id="rect886"
       style="fill:#125998;fill-opacity:1" />
    <ellipse
       cx="24"
       cy="33"
       rx="15"
       ry="6"
       id="ellipse888"
       style="fill:#125998;fill-opacity:1" />
  </g>
  <path
     style="fill:#07243d;fill-opacity:1;filter:url(#filter936);opacity:0.08"
     id="path910"
     d="M23.1,8.2L0.6,18.1c-0.8,0.4-0.8,1.5,0,1.9l22.5,9.9c0.6,0.2,1.2,0.2,1.8,0l22.5-9.9c0.8-0.4,0.8-1.5,0-1.9 L24.9,8.2C24.3,7.9,23.7,7.9,23.1,8.2z"
     fill="#78909C" />
  <path
     fill="#78909C"
     d="M23.1,8.2L0.6,18.1c-0.8,0.4-0.8,1.5,0,1.9l22.5,9.9c0.6,0.2,1.2,0.2,1.8,0l22.5-9.9c0.8-0.4,0.8-1.5,0-1.9 L24.9,8.2C24.3,7.9,23.7,7.9,23.1,8.2z"
     id="path892"
     style="fill:#1e88e5;fill-opacity:1" />
  <g
     fill="#37474F"
     id="g900"
     style="fill:#ffd000;fill-opacity:1">
    <path
       d="M43.2,20.4l-20-3.4c-0.5-0.1-1.1,0.3-1.2,0.8c-0.1,0.5,0.3,1.1,0.8,1.2L42,22.2V37c0,0.6,0.4,1,1,1 s1-0.4,1-1V21.4C44,20.9,43.6,20.5,43.2,20.4z"
       id="path894"
       style="fill:#ffd000;fill-opacity:1" />
    <circle
       cx="43"
       cy="37"
       r="2"
       id="circle896"
       style="fill:#ffd000;fill-opacity:1" />
    <path
       d="M46,40c0,1.7-3,6-3,6s-3-4.3-3-6s1.3-3,3-3S46,38.3,46,40z"
       id="path898"
       style="fill:#ffd000;fill-opacity:1" />
  </g>
</svg>
